<?xml version="1.0" encoding="UTF-8"?>
<svg id="Layer_1" xmlns="http://www.w3.org/2000/svg" xmlns:xlink="http://www.w3.org/1999/xlink" viewBox="0 0 1080 1080">
  <defs>
    <style>
      .cls-1 {
        fill: url(#linear-gradient);
      }
    </style>
    <linearGradient id="linear-gradient" x1="143.08" y1="540" x2="936.92" y2="540" gradientUnits="userSpaceOnUse">
      <stop offset="0" stop-color="#f2ad6d"/>
      <stop offset=".16" stop-color="#f2a76b"/>
      <stop offset=".38" stop-color="#f29666"/>
      <stop offset=".62" stop-color="#f27c5f"/>
      <stop offset=".88" stop-color="#f25754"/>
      <stop offset="1" stop-color="#f2434f"/>
    </linearGradient>
  </defs>
  <path class="cls-1" d="M329.97,554.28l-7.48,22.66c-7.61,23.04-29.61,41.82-49.16,41.93h-.02c-19.53.12-29.2-18.47-21.6-41.51l24.77-75.03c.67-2.02.58-3.84-.11-5.17-.61-1.17-1.69-1.95-3.14-2.09-.17-.02-.34-.04-.54-.03-.21,0-.43.02-.66.04-3.26.4-6.73,3.54-7.98,7.33l-24.77,75.03c-3.8,11.52-11.2,21.98-20.1,29.56-7.78,6.64-16.69,11.09-25.36,12.13-.06,0-.12.01-.19.02l-3.41.22c-.07,0-.13,0-.2,0-1.19,0-2.33-.07-3.45-.19-8.04-.92-14.07-5.29-17.5-11.89-3.92-7.5-4.43-17.91-.63-29.43l24.77-75.03c1.33-4.04-.37-7.31-3.79-7.29-1.73.01-3.55.84-5.1,2.18-1.57,1.34-2.87,3.17-3.53,5.19l-7.48,22.66c-3.14,9.5-12.21,17.23-20.27,17.28-4.04.02-7.03-1.88-8.66-4.97-1.6-3.11-1.81-7.4-.25-12.14l7.48-22.66c7.61-23.06,29.61-41.84,49.15-41.95,9.78-.06,17.09,4.55,20.99,12.08,3.91,7.52,4.42,17.93.62,29.45l-16.62,50.34c-.02.07-.04.13-.06.2-.14.6-.31,1.21-.51,1.82l-7.47,22.64c-.67,2.02-.58,3.86.11,5.17.59,1.16,1.64,1.93,3.05,2.09l.63.03c.18,0,.35,0,.55-.04,1.52-.18,3.09-.97,4.46-2.14,1.56-1.32,2.87-3.17,3.53-5.19l24.76-75.01c7.13-21.61,26.92-39.48,45.46-41.71.06,0,.13-.01.19-.02l3.49-.22c.07,0,.13,0,.2,0,1.16,0,2.28.07,3.37.19,17.19,1.99,25.29,19.69,18.14,41.34l-24.76,75.01c-.67,2.02-.58,3.86.11,5.17.67,1.33,1.97,2.14,3.68,2.13,3.42-.02,7.3-3.31,8.63-7.37l7.47-22.64c1.57-4.74,4.62-9.05,8.28-12.19,3.68-3.14,7.94-5.08,11.98-5.11,8.06-.05,12.05,7.62,8.91,17.13ZM360.22,593.4h77c1.5,0,2.72-1.22,2.72-2.72v-13.31c0-1.5-1.22-2.72-2.72-2.72h-46.77c-2.27,0-3.54-2.63-2.13-4.41l51.03-64.26c.38-.48.59-1.08.59-1.69v-13.65c0-1.5-1.22-2.72-2.72-2.72h-75.41c-1.5,0-2.72,1.22-2.72,2.72v12.99c0,1.5,1.22,2.72,2.72,2.72h44.83c2.28,0,3.55,2.64,2.12,4.42l-50.66,63.14c-.39.48-.6,1.08-.6,1.7v15.07c0,1.5,1.22,2.72,2.72,2.72ZM514.86,559.72c1.52,0,2.76-1.26,2.72-2.78-.75-29.12-13.4-43.76-36.66-43.76s-37.8,15.57-37.8,39.71c0,28.27,13.02,42.57,39.07,42.57,15.33,0,27.43-7.65,32.99-21.33.73-1.8-.57-3.76-2.51-3.76h-15.56c-1.08,0-2.03.65-2.49,1.63-2.08,4.43-7.41,7.11-13.39,7.11-9.24,0-15.6-6.3-17.15-16.28-.25-1.63,1.04-3.1,2.69-3.1h48.08ZM467.52,546.7c-1.73,0-3.01-1.59-2.66-3.28,1.81-8.8,8.05-13.88,15.43-13.88s14.27,4.55,15.76,14c.26,1.65-1.01,3.15-2.69,3.15h-25.84ZM595.59,593.4c1.5,0,2.72-1.22,2.72-2.72v-51.45c0-17-10.96-26.05-25.89-26.05-9.13,0-15.82,2.52-20.62,7.26-1.72,1.7-4.63.5-4.63-1.92v-.56c0-1.5-1.22-2.72-2.72-2.72h-14.26c-1.5,0-2.72,1.22-2.72,2.72v72.71c0,1.5,1.22,2.72,2.72,2.72h15.21c1.5,0,2.72-1.22,2.72-2.72v-42.08c0-11.91,5.24-17.95,16.04-17.95,9.85,0,13.34,3.34,13.34,15.41v44.62c0,1.5,1.22,2.72,2.72,2.72h15.37ZM670.43,593.4h17c1.21,0,2.28-.8,2.61-1.97l20.84-72.71c.5-1.74-.81-3.47-2.61-3.47h-15.53c-1.26,0-2.35.86-2.64,2.09l-8.81,37.11c-.66,2.78-4.61,2.79-5.28.02l-9.05-37.14c-.3-1.22-1.39-2.07-2.64-2.07h-16.64c-1.28,0-2.39.89-2.66,2.15l-7.9,36.7c-.6,2.81-4.59,2.88-5.29.1l-9.34-36.89c-.31-1.21-1.39-2.05-2.63-2.05h-16.05c-1.8,0-3.11,1.73-2.61,3.46l20.69,72.71c.33,1.17,1.4,1.97,2.61,1.97h17c1.23,0,2.3-.82,2.62-2l9.22-33.81c.73-2.67,4.52-2.67,5.24,0l9.22,33.81c.32,1.18,1.4,2,2.62,2ZM764.62,593.4h14.43c1.5,0,2.72-1.22,2.72-2.72v-46.68c0-19.7-8.58-30.81-33.36-30.81s-32.82,9.92-34.15,24.51c-.14,1.59,1.11,2.97,2.71,2.97h14.1c1.27,0,2.35-.88,2.65-2.12,1.42-5.79,5.35-9.48,13.74-9.48s13.18,3.02,13.18,8.1c0,5.4-2.86,7.47-13.18,8.89-20.81,2.86-35.9,5.4-35.9,27.96,0,12.71,8.26,21.44,26.05,21.44,8.28,0,15.17-2.28,20.13-5.9,1.58-1.15,3.8-.24,4.22,1.66,0,.02.01.05.02.07.27,1.23,1.38,2.1,2.65,2.1ZM760.96,563.69c-.16,9.21-8.1,17-18.74,17-6.51,0-10.01-2.86-10.01-8.74,0-6.67,3.81-10.01,15.57-12.23,4.32-.81,7.36-1.52,9.56-2.35,1.8-.68,3.73.66,3.69,2.58l-.07,3.74ZM813.54,593.4h17.78c1.15,0,2.17-.72,2.56-1.8l26.16-72.71c.64-1.77-.68-3.64-2.56-3.64h-15.91c-1.18,0-2.23.76-2.59,1.89l-13.31,41.61c-.81,2.52-4.38,2.52-5.18,0l-13.18-41.59c-.36-1.13-1.41-1.9-2.59-1.9h-17.18c-1.88,0-3.19,1.86-2.56,3.63l26.01,72.71c.39,1.08,1.41,1.8,2.56,1.8ZM934.2,559.72c1.52,0,2.76-1.26,2.72-2.78-.75-29.12-13.4-43.76-36.66-43.76s-37.8,15.57-37.8,39.71c0,28.27,13.02,42.57,39.07,42.57,15.33,0,27.43-7.65,32.99-21.33.73-1.8-.57-3.76-2.51-3.76h-15.56c-1.08,0-2.03.65-2.49,1.63-2.08,4.43-7.41,7.11-13.39,7.11-9.24,0-15.6-6.3-17.15-16.28-.25-1.63,1.04-3.1,2.69-3.1h48.08ZM886.86,546.7c-1.73,0-3.01-1.59-2.66-3.28,1.81-8.8,8.05-13.88,15.43-13.88s14.27,4.55,15.76,14c.26,1.65-1.01,3.15-2.69,3.15h-25.84Z"/>
</svg>